HIERARCHY
ROOT root
{
	OFFSET	0	13.1	24.9
	CHANNELS 6  Xposition Yposition Zposition Xrotation Yrotation Zrotation
	JOINT spine_1
	{
		OFFSET	0	9.99999	0
		CHANNELS 3  Xrotation Yrotation Zrotation
		JOINT spine_2
		{
			OFFSET	0	112	-10
			CHANNELS 3  Xrotation Yrotation Zrotation
			JOINT spine_3
			{
				OFFSET	0	206.5	19.3
				CHANNELS 3  Xrotation Yrotation Zrotation
				JOINT spine_4
				{
					OFFSET	0	110.4	14.6
					CHANNELS 3  Xrotation Yrotation Zrotation
					JOINT neck_1
					{
						OFFSET	0	71.8	-50.3
						CHANNELS 3  Xrotation Yrotation Zrotation
						JOINT neck_2
						{
							OFFSET	0	86.2	-25.8
							CHANNELS 3  Xrotation Yrotation Zrotation
							JOINT head_ee
							{
								OFFSET	0	179.8	-8.7
								CHANNELS 3  Xrotation Yrotation Zrotation
								End Site
								{
									OFFSET	1	0	0
								}
							}
						}
					}
					JOINT left_clavicle
					{
						OFFSET	-43.2	22.4	-70.8
						CHANNELS 3  Xrotation Yrotation Zrotation
						JOINT left_shoulder
						{
							OFFSET	-93.9	-5.79999	48.7
							CHANNELS 3  Xrotation Yrotation Zrotation
							JOINT left_elbow
							{
								OFFSET	-291.4	-30.8	15.2
								CHANNELS 3  Xrotation Yrotation Zrotation
								JOINT left_lowarm_twist
								{
									OFFSET	-110.7	-3.89999	13.6
									CHANNELS 3  Xrotation Yrotation Zrotation
									JOINT left_hand
									{
										OFFSET	-110.7	-3.89999	13.6
										CHANNELS 3  Xrotation Yrotation Zrotation
										JOINT left_ee
										{
											OFFSET	-80.8	-5.10001	12.1
											CHANNELS 3  Xrotation Yrotation Zrotation
											End Site
											{
												OFFSET	1	0	0
											}
										}
									}
								}
							}
						}
					}
					JOINT right_clavicle
					{
						OFFSET	43.2	22.4	-70.8
						CHANNELS 3  Xrotation Yrotation Zrotation
						JOINT right_shoulder
						{
							OFFSET	93.9	-5.79999	48.7
							CHANNELS 3  Xrotation Yrotation Zrotation
							JOINT right_elbow
							{
								OFFSET	291.4	-30.8	15.2
								CHANNELS 3  Xrotation Yrotation Zrotation
								JOINT right_lowarm_twist
								{
									OFFSET	110.7	-3.89999	13.6
									CHANNELS 3  Xrotation Yrotation Zrotation
									JOINT right_hand
									{
										OFFSET	110.7	-3.89999	13.6
										CHANNELS 3  Xrotation Yrotation Zrotation
										JOINT right_ee
										{
											OFFSET	80.8	-5.10001	12.1
											CHANNELS 3  Xrotation Yrotation Zrotation
											End Site
											{
												OFFSET	1	0	0
											}
										}
									}
								}
							}
						}
					}
				}
			}
		}
	}
	JOINT left_hip
	{
		OFFSET	-82.8	-127.5	0.300001
		CHANNELS 3  Xrotation Yrotation Zrotation
		JOINT left_knee
		{
			OFFSET	-28.2	-396.7	2.2
			CHANNELS 3  Xrotation Yrotation Zrotation
			JOINT left_ankle
			{
				OFFSET	-11.7	-411.3	35.4
				CHANNELS 3  Xrotation Yrotation Zrotation
				JOINT left_toes
				{
					OFFSET	0	-60	-88.6
					CHANNELS 3  Xrotation Yrotation Zrotation
					JOINT left_foot_ee
					{
						OFFSET	-22.5	-16.5	-42.2
						CHANNELS 3  Xrotation Yrotation Zrotation
						End Site
						{
							OFFSET	1	0	0
						}
					}
				}
			}
		}
	}
	JOINT right_hip
	{
		OFFSET	82.8	-127.5	0.300001
		CHANNELS 3  Xrotation Yrotation Zrotation
		JOINT right_knee
		{
			OFFSET	28.2	-396.7	2.2
			CHANNELS 3  Xrotation Yrotation Zrotation
			JOINT right_ankle
			{
				OFFSET	11.7	-411.3	35.4
				CHANNELS 3  Xrotation Yrotation Zrotation
				JOINT right_toes
				{
					OFFSET	0	-60	-88.6
					CHANNELS 3  Xrotation Yrotation Zrotation
					JOINT right_foot_ee
					{
						OFFSET	22.5	-16.5	-42.2
						CHANNELS 3  Xrotation Yrotation Zrotation
						End Site
						{
							OFFSET	1	0	0
						}
					}
				}
			}
		}
	}
}
MOTION
Frames: 11
Frame Time: 0.02
3491.74103801 741.976 -1488.66535363 34.5801857085 86.0057390201 -31.6467308233 0.409848 0.0412975 -1.06779 0.410476 0.109156 -1.063 0.408611 0.32292 -1.01864 0.407198 0.158002 -1.05685 -11.9648 7.14182 0.989969 -12.0512 12.9057 2.96921 -0.0 0.0 -0.0 -2.49575 22.8658 -0.811749 -20.1695 -32.7537 68.7511 1.15806 -29.8405 0.308582 -85.2973 -8.48907 5.17718 0.174871 0.540513 1.39384 -0.0 0.0 -0.0 6.77709 18.7643 -12.3896 -3.58335 20.3998 -57.3512 1.14837 29.6333 -0.303779 25.0863 -0.191913 3.17331 0.109706 -14.9912 -6.8215 0.0 0.0 0.0 21.9018 9.87264 -10.3821 -37.5018 -0.315531 5.64536 12.7498 24.3897 -1.87311 8.84446 -0.0 -0.0 -0.0 0.0 -0.0 -3.40946 3.67674 -6.199 -9.73182 -0.276732 -1.4661 19.6981 -13.1181 2.70784 -18.4271 0.0 0.0 0.0 0.0 0.0 
3492.36947471 741.976 -1491.98445264 22.0741130066 83.9613937145 -19.0949362957 0.409848 0.0412975 -1.06779 0.410476 0.109156 -1.063 0.408611 0.32292 -1.01864 0.407198 0.158002 -1.05685 -11.9648 7.14182 0.989969 -12.0512 12.9057 2.96921 -0.0 0.0 -0.0 -2.49575 22.8658 -0.811749 -20.1695 -32.7537 68.7511 1.15806 -29.8405 0.308582 -85.2973 -8.48907 5.17718 0.174871 0.540513 1.39384 -0.0 0.0 -0.0 6.77709 18.7643 -12.3896 -3.58335 20.3998 -57.3512 1.14837 29.6333 -0.303779 25.0863 -0.191913 3.17331 0.109706 -14.9912 -6.8215 0.0 0.0 0.0 21.9018 9.87264 -10.3821 -37.5018 -0.315531 5.64536 12.7498 24.3897 -1.87311 8.84446 -0.0 -0.0 -0.0 0.0 -0.0 -3.40946 3.67674 -6.199 -9.73182 -0.276732 -1.4661 19.6981 -13.1181 2.70784 -18.4271 0.0 0.0 0.0 0.0 0.0 
3492.79035435 741.976 -1493.87695243 18.1703162199 82.7166644369 -15.1648617993 0.409848 0.0412975 -1.06779 0.410476 0.109156 -1.063 0.408611 0.32292 -1.01864 0.407198 0.158002 -1.05685 -11.9648 7.14182 0.989969 -12.0512 12.9057 2.96921 -0.0 0.0 -0.0 -2.49575 22.8658 -0.811749 -20.1695 -32.7537 68.7511 1.15806 -29.8405 0.308582 -85.2973 -8.48907 5.17718 0.174871 0.540513 1.39384 -0.0 0.0 -0.0 6.77709 18.7643 -12.3896 -3.58335 20.3998 -57.3512 1.14837 29.6333 -0.303779 25.0863 -0.191913 3.17331 0.109706 -14.9912 -6.8215 0.0 0.0 0.0 21.9018 9.87264 -10.3821 -37.5018 -0.315531 5.64536 12.7498 24.3897 -1.87311 8.84446 -0.0 -0.0 -0.0 0.0 -0.0 -3.40946 3.67674 -6.199 -9.73182 -0.276732 -1.4661 19.6981 -13.1181 2.70784 -18.4271 0.0 0.0 0.0 0.0 0.0 
3492.91378721 741.976 -1494.39575989 17.3216663699 82.3695703689 -14.3089777312 0.409848 0.0412975 -1.06779 0.410476 0.109156 -1.063 0.408611 0.32292 -1.01864 0.407198 0.158002 -1.05685 -11.9648 7.14182 0.989969 -12.0512 12.9057 2.96921 -0.0 0.0 -0.0 -2.49575 22.8658 -0.811749 -20.1695 -32.7537 68.7511 1.15806 -29.8405 0.308582 -85.2973 -8.48907 5.17718 0.174871 0.540513 1.39384 -0.0 0.0 -0.0 6.77709 18.7643 -12.3896 -3.58335 20.3998 -57.3512 1.14837 29.6333 -0.303779 25.0863 -0.191913 3.17331 0.109706 -14.9912 -6.8215 0.0 0.0 0.0 21.9018 9.87264 -10.3821 -37.5018 -0.315531 5.64536 12.7498 24.3897 -1.87311 8.84446 -0.0 -0.0 -0.0 0.0 -0.0 -3.40946 3.67674 -6.199 -9.73182 -0.276732 -1.4661 19.6981 -13.1181 2.70784 -18.4271 0.0 0.0 0.0 0.0 0.0 
3488.95709385 743.328 -1492.63790238 27.6615743583 84.8795990384 -24.99271455 0.386163 0.108685 -0.923407 0.386622 0.167221 -0.914621 0.384041 0.349984 -0.861401 0.383067 0.209555 -0.90586 -13.1509 7.04813 0.911037 -13.2583 12.8461 3.00085 -0.0 0.0 -0.0 -2.80034 22.9045 -1.22812 -21.8604 -32.8319 68.4289 1.11989 -29.0189 0.28983 -85.1673 -8.47283 5.18044 0.315367 0.0404171 2.12328 -0.0 0.0 -0.0 6.94032 19.4462 -12.6921 -1.93 20.7455 -56.0166 1.18532 30.4193 -0.32227 25.5303 -0.182741 3.2293 0.240555 -12.9987 -6.86927 0.0 0.0 0.0 24.4113 8.11368 -10.3844 -37.0831 -0.2917 5.58559 12.1283 26.5032 -1.80666 9.68093 -0.0 -0.0 -0.0 0.0 -0.0 -4.05794 4.18824 -6.27184 -9.428 -0.27188 -1.41973 20.1508 -12.3467 2.76086 -18.5343 0.0 0.0 0.0 0.0 0.0 
3480.86380888 748.151 -1491.69053665 39.1847336224 86.3758091849 -36.596852833 0.405322 0.166322 -0.750357 0.40561 0.213731 -0.738254 0.402881 0.359374 -0.679377 0.402322 0.247572 -0.727604 -14.0065 6.98921 0.863434 -14.129 12.8079 3.03531 -0.0 0.0 -0.0 -2.97064 22.8608 -1.47373 -22.959 -32.8966 68.2293 1.09322 -28.4369 0.27701 -85.0788 -8.46178 5.18264 0.417233 -0.30698 2.65998 -0.0 0.0 -0.0 7.07729 20.0282 -12.9447 -0.671114 21.0301 -55.0188 1.2121 30.9811 -0.335943 25.8382 -0.176126 3.26807 0.330377 -11.5701 -6.88418 0.0 0.0 0.0 26.4388 6.86511 -10.3238 -36.6817 -0.269266 5.52813 11.6829 27.9725 -1.75867 10.2658 -0.0 -0.0 -0.0 0.0 -0.0 -4.5248 4.55789 -6.59465 -9.19201 -0.267941 -1.38373 20.4635 -11.7681 2.79732 -18.6095 0.0 0.0 0.0 0.0 0.0 
3474.66535401 747.526 -1491.04556397 61.0026610592 87.7446553766 -58.602469569 0.419388 0.132118 -0.614351 0.419581 0.170942 -0.6047 0.417795 0.290173 -0.557391 0.417416 0.198503 -0.596221 -14.1785 6.67767 -0.0916214 -14.3063 12.8005 2.05086 -0.0 0.0 -0.0 -3.09126 22.4976 -1.71478 -24.2044 -33.0554 68.4112 0.959545 -25.4227 0.216447 -85.0823 -8.46221 5.18255 0.599739 -0.783899 3.68475 -0.0 0.0 -0.0 7.5174 21.0988 -13.8204 0.909575 21.7258 -54.2112 1.23849 31.5283 -0.349633 26.0649 -0.171123 3.29659 0.347386 -9.57184 -6.20886 0.0 0.0 0.0 28.234 4.17566 -10.2076 -36.2187 -0.243894 5.46167 11.2167 28.2755 -1.69432 10.0759 -0.0 -0.0 -0.0 0.0 -0.0 -6.00715 5.42267 -6.62957 -5.93279 -0.198409 -0.888485 18.514 -11.2844 2.55112 -18.687 0.0 0.0 0.0 0.0 0.0 
3462.79985383 740.894 -1487.81263677 121.918948938 88.3939736843 -119.890963676 0.519007 0.00628187 -0.170717 0.519023 0.0171323 -0.169971 0.518976 0.050999 -0.163043 0.51894 0.0246095 -0.169051 -11.9668 6.58128 -1.17022 -12.0554 13.2306 0.736855 -0.0 0.0 -0.0 -3.19712 21.9225 -1.9807 -25.9562 -33.6786 68.8342 0.800412 -21.6282 0.152894 -84.8444 -8.43247 5.18838 1.26818 -1.63371 7.83698 -0.0 0.0 -0.0 7.7439 23.4317 -14.1129 3.66203 22.9171 -52.5011 1.22033 31.1525 -0.340189 27.0592 -0.147845 3.42147 0.495621 -4.61457 -5.19815 0.0 0.0 0.0 31.1516 1.70458 -7.96656 -29.8017 0.0516123 4.52194 -0.70071 27.9271 0.108951 9.60564 -0.0 -0.0 -0.0 0.0 -0.0 -7.5134 8.53192 -6.17459 -2.56734 -0.097161 -0.38199 12.1278 -12.3008 1.7162 -15.5455 0.0 0.0 0.0 0.0 0.0 
3462.73742998 740.894 -1487.26857925 129.612854828 88.2304243994 -127.588191136 0.519007 0.00628187 -0.170717 0.519023 0.0171323 -0.169971 0.518976 0.050999 -0.163043 0.51894 0.0246095 -0.169051 -11.9668 6.58128 -1.17022 -12.0554 13.2306 0.736855 -0.0 0.0 -0.0 -3.19712 21.9225 -1.9807 -25.9562 -33.6786 68.8342 0.800412 -21.6282 0.152894 -84.8444 -8.43247 5.18838 1.26818 -1.63371 7.83698 -0.0 0.0 -0.0 7.7439 23.4317 -14.1129 3.66203 22.9171 -52.5011 1.22033 31.1525 -0.340189 27.0592 -0.147845 3.42147 0.495621 -4.61457 -5.19815 0.0 0.0 0.0 31.1516 1.70458 -7.96656 -29.8017 0.0516123 4.52194 -0.70071 27.9271 0.108951 9.60564 -0.0 -0.0 -0.0 0.0 -0.0 -7.5134 8.53192 -6.17459 -2.56734 -0.097161 -0.38199 12.1278 -12.3008 1.7162 -15.5455 0.0 0.0 0.0 0.0 0.0 
3452.62501461 738.899 -1483.15688543 154.93723201 87.0268779567 -153.305174219 0.518577 0.000174801 -0.0315893 0.518578 0.00218455 -0.0315141 0.518576 0.00848422 -0.0304291 0.518575 0.00357203 -0.0313871 -11.3991 6.46232 -1.66045 -11.473 13.3116 0.164307 -0.0 0.0 -0.0 -3.34829 21.7044 -2.24123 -27.0041 -33.8329 68.8684 0.741015 -20.157 0.13171 -84.9026 -8.43975 5.18697 1.49884 -2.01048 9.24767 -0.0 0.0 -0.0 7.78856 24.5367 -14.1062 4.96675 23.3194 -51.5204 1.23295 31.414 -0.346741 27.3474 -0.140692 3.4576 0.536073 -2.89835 -4.77064 0.0 0.0 0.0 32.0999 0.825877 -7.42039 -27.7184 0.124673 4.21058 -4.19028 27.2752 0.653335 9.34156 -0.0 -0.0 -0.0 0.0 -0.0 -8.18131 9.43374 -5.99259 -1.71982 -0.0669831 -0.255423 10.2839 -12.5154 1.46513 -14.599 0.0 0.0 0.0 0.0 0.0 
3439.93933365 733.275 -1479.28654246 152.269591821 85.7977200273 -150.93710148 0.391485 0.0182184 0.078705 0.391488 0.0131733 0.0797048 0.391509 -0.00332157 0.0807177 0.3915 0.00946797 0.0802293 -11.5171 6.2741 -2.39125 -11.5857 13.4321 -0.579226 -0.0 0.0 -0.0 -3.54458 21.5823 -2.54828 -28.07 -33.8985 68.794 0.699431 -19.1101 0.117737 -84.736 -8.41891 5.19099 1.78283 -2.87872 10.8288 -0.0 0.0 -0.0 7.83284 25.5209 -14.1059 5.47612 23.427 -49.6888 1.24261 31.6131 -0.351788 27.5059 -0.136683 3.47744 0.61769 -0.554007 -4.35652 0.0 0.0 0.0 33.1008 0.135516 -6.97656 -22.9616 0.248723 3.49133 -6.6183 26.231 1.0299 8.58955 -0.0 -0.0 -0.0 0.0 -0.0 -10.2195 10.7544 -5.36186 -2.59315 -0.0980503 -0.38585 9.02739 -12.51 1.2915 -13.9561 0.0 0.0 0.0 0.0 0.0 
